<svg height="88" width="219" xmlns="http://www.w3.org/2000/svg"><path d="m143.901 32.53c.199.083.57.108 1.11.076.543-.033.974-.127 1.29-.28.318-.148.888-.462 1.111-1.21.341-1.141.31-2.634.31-2.634.06-3.067-1.604-4.992-4.777-4.047-.227.131-.44.305-.633.516-.388.422-.573 1.777-.55 4.067.236 1.246.603 2.122 1.097 2.627.493.506.84.8 1.042.885zm56.168 23.31c-.208 7.344-1.6 13-4.173 16.965-2.576 3.965-4.691 4.834-6.348 2.607-1.657-2.226-1.472-7.272.555-15.148 2.028-7.873 4.448-12.34 7.258-13.397 2.01-1.364 2.914 1.627 2.708 8.973zm-135.19.541a3914.984 3914.984 0 0 0 3.973-19.468c1.404-6.97 2.568-13.256 5.926-14.92 2.735-1.355 3.757 2.525 2.307 7.826-1.45 5.3-5.518 14.155-12.206 26.562zm-22.991 16.424c-2.984 4.88-4.69 4.834-6.348 2.607-1.657-2.226-1.471-7.272.556-15.148 2.026-7.873 4.446-12.34 7.256-13.397 2.81-1.058 2.915 1.627 2.708 8.973 0 0-1.189 12.084-4.172 16.965zm41.988-14.295c0-8.012 2.47-14.316 7.413-18.905 2.958 6.733.488 13.034-7.413 18.905zm126.124 13.793c-2.9 1.197-5.626-2.413-5.273-9.286 0 0 .23-15.307 1.776-21.326.636-2.474-1.14-4.199-4.215-4.923-.682 1.975-1.096 4.354-1.243 7.136-2.545-5.648-5.962-5.544-10.252.314-3.305 4.508-6.73 12.36-7.3 22.651-3.256 8.302-5.738 9.79-6.175 6.756-.568-3.973 1.845-19.913 1.845-19.913 1.153-7.652 1.198-11.686.134-12.103-1.807-2.587-7.119 1.447-15.935 12.103 0 0 2.079-13.088 2.079-16.249 0-2.789-4.73-1.166-4.996.576-.233 1.523-.989 11.492-1.186 18.58-3.498 12.122-7.114 18.403-12.306 17.415-2.212-.422-2.495-4.33-2.821-8.032-.117-3.48 2.74-30.654 2.74-30.654s-3.48-.963-3.952.752-2.174 13.98-3.32 28.375c-.942 3.34-2.023 6.172-3.25 8.475-1.507 2.84-3.364 1.735-4.385-1.134-2.72-7.64-.472-31.974-.372-32.506 3.969.024 8.013-.8 8.013-.8.56-1.742.655-4.125.655-4.125-4.585.396-8.668.396-8.668.396.327-9.903.192-13.428.372-15.342-4.094-.993-4.937-.656-5.136 1.57-.372 5.844-.826 11.951-.963 13.22-.06.345-.43.552-1.01.552s-4.967-.706-7.856-1.31c0 0-1.594 3.297.804 3.992 1.814.526 4.089 1.048 7.632 1.676l-.58 8.646c-.21 5.285-.001 9.626-.001 14.428-3.727 11.654-7.434 13.845-7.714 9.82-.277-4.004 1.698-18.321 1.698-18.321 1.155-7.652 1.199-11.686.133-12.103-1.806-2.587-7.117 1.447-15.934 12.103 0 0 1.744-9.319 1.908-12.479.3-5.702-3.917-6.986-4.948-3.819-.512 1.574-.893 12.935-1.084 19.997-2.805 8.027-3.153 10.374-9.8 15.457-3.222 2.464-4.971.527-5.326-8.848 8.712-7.61 12.442-14.27 12.042-17.763-.533-4.167-1.078-6.609-1.729-7.972-.976-2.086-2.69-2.951-4.41-2.31-5.121 1.909-8.88 8.376-11.007 19.113l-.542 7.239c-2.766 8.67-5.035 13.304-6.805 13.879-2.056.666-3.706-2.002-4.948-8.012l.089-3.756c.887-3.535 2.625-7.325 5.214-11.372 2.589-4.05 4.957-9.057 7.102-15.027 2.146-5.966 2.981-10.667 2.508-14.105-.473-3.435-2.272-5.266-5.393-5.488-3.122-.222-5.644 1.683-7.478 5.76-1.713 3.804-2.364 5.633-3.373 9.556-1.308 5.084-2.457 10.476-2.93 16.318a93.524 93.524 0 0 0 -.479 10.03c-1.41 7.206-3.409 11.353-6.002 12.424-2.593 1.07-4.352-2.048-4.926-8.928-.388-4.639-.32-11.44 0-13.94s.766-6.65 1.478-8.433c.265-2.557-1.01-3.172-3.73-3.819-.681 1.975-1.133 4.277-1.432 6.49-2.832-4.765-11.14 1.122-14.337 10.383-3.197 9.262-5.015 23.637 0 26.05 5.015 2.412 9.07.264 13.537-12.979.888 5.426 2.799 10.178 6.658 10.935 3.394.663 6.473-3.243 9.134-8.763.483 6.609 1.498 10.997 3.56 12.35 2.55 1.676 5.09 1.183 6.925.21 2.448-.781 4.56-4.181 6.34-10.18 2.047 7.589 6.7 8.856 12.169 4.255 3.077-3.414 6.977-7.721 7.615-10.875a617.524 617.524 0 0 0 -.747 14.42c.709 1.197 1.863 1.114 3.46-.249.858-16.47 5.105-26.53 12.74-30.173-1.54 15.385-1.207 24.05-.8 26.522.514 3.111 2.221 4.459 3.817 4.237 4.488-.631 6.632-6.686 8.106-12.766.659 6.704 3.455 11.046 5.766 11.658 2.367.628 4.557-.138 6.57-2.295a19.496 19.496 0 0 0 2.617-3.517c.156.977.345 1.913.579 2.787.592 2.227 2.602 4.104 5.725 4.133 0 0 6.834 1.047 10.015-7.619 0 0 1.394-3.1 2.412-6.14a599.07 599.07 0 0 0 -.684 13.422c.708 1.197 1.863 1.114 3.46-.249.858-16.47 5.104-26.53 12.738-30.173-1.539 15.385-1.207 24.05-.798 26.522.514 3.111 2.22 4.459 3.817 4.237 3.127-.44 5.113-3.518 6.53-7.396a42.85 42.85 0 0 0 .84 4.096c.256 1.007 1.287 2.813 1.908 3.59 4.09 5.12 9.068.264 13.538-12.979.885 5.426 1.575 9.497 6.657 10.935 5.082 1.439 10.295-8.735 10.828-12.006.533-3.27.4-6.62-1.598-8.861-1.42 8.875-3.235 13.681-6.134 14.877zm-181.264-49.363c-.97-3.587-.979-7.26-.025-11.018s1.69-4.757 2.208-2.999c.52 1.766-.208 6.436-2.183 14.017zm16.404 1.99s-9.062 5.191-12.94 2.396c1.406-6.724 2.516-10.126 2.754-13.888.239-3.762-.608-6.21-1.575-7.273-.968-1.061-2.9-1.37-6.027 1.304-3.13 2.673-4.695 10.152-1.124 21.084-5.32 29.32-12.37 51.208-15.081 48.046-2.71-3.16-5.3-15.568-3.319-45.174 0 0 2.005-26.001 2.404-29.335.4-3.333-5.717-2.095-6.061-.303-.345 1.793-4.171 38.258-4.171 51.859 0 18.776 4.266 28.979 7.778 30.976s5.234 1.397 6.774.827c8.67-3.206 16.657-52.612 16.657-52.612 3.004 2.056 7.807 1.025 13.481-1.79 1.06-2.495.45-6.118.45-6.118z"/><path d="m203.145 17.227s-3.75-3.395-5.054 8.247c0 0 8.802-5.66 5.054-8.247zm-5.054 8.247c4.238 5.822 6.849 2.75 6.849 2.75.813-3.72-6.849-2.75-6.849-2.75zm-4.239-7.438s-2.282 1.94 4.24 7.438c0 0-.816-9.38-4.24-7.438zm-12.062 11.804c-5.87-4.205-2.608-8.734-2.608-8.734 3.75 5.985 12.715 7.116 12.715 7.116-3.75 5.176-10.107 1.618-10.107 1.618zm-12.634-14.013c-.63 0-.953-.422-.953-.946a.95.95 0 0 1 .953-.945c.53 0 .954.422.954.945 0 .524-.321.946-.954.946zm2.364-3.777s-6.195.486-6.52 6.308c0 0 1.631-1.779 2.12.162 0 0-1.141 8.41 2.119 12.938 0 0 3.751 5.953 11.43 6.653-1.129 1.462-3.245 2.942-3.245 2.942l-2.066.94.856.148-2.631 1.714 3.604-1.395-.649 1.539 1.825-1.81.889.934v-1.762a14.548 14.548 0 0 0 3.225-3.188 18.897 18.897 0 0 0 4.204-.571s10.106-3.396 11.41-12.13c0 0-11.083 4.529-18.093-8.408 0 0-1.794-5.66-8.478-5.014z"/></svg>