<svg height="88" viewBox="0 0 219 88" width="219" xmlns="http://www.w3.org/2000/svg"><g fill="#0b0b0a" fill-rule="evenodd"><path d="m144.549244 34.2783419c.198379.0830323.569542.1085807 1.111353.0759355.542523-.0326451.973413-.1270322 1.289825-.2796129.317834-.1497419.888799-.464129 1.112065-1.214258.341299-1.144.310013-2.64.310013-2.64.059727-3.0750323-1.605526-5.0046452-4.780315-4.0572259-.227532.1312904-.440133.3051613-.632825.5166452-.388938.4229677-.573808 1.782-.550344 4.0778065.236065 1.2490322.602961 2.1269032 1.097133 2.6336129.493461.5074193.840448.8026451 1.043095.8870967m56.205496 23.3689678c-.208334 7.3629032-1.601259 13.0339355-4.175932 17.008129-2.577516 3.9749032-4.694279 4.8463871-6.352422 2.6137419-1.658142-2.2312258-1.473272-7.2905161.555322-15.1863871 2.029305-7.8930322 4.451104-12.3710967 7.263263-13.4313548 2.010818-1.3668387 2.91526 1.6315484 2.709769 8.995871m-135.2801394.5429032c1.2443182-6.0230323 2.5682728-12.5307742 3.9747078-19.5182581 1.4057241-6.9867742 2.5696948-13.2887096 5.930065-14.9571613 2.7375-1.3590322 3.759974 2.5314194 2.3087435 7.8454839-1.4505195 5.3140645-5.5219286 14.1914194-12.2135163 26.6299355m-18.8318668-.5429032c-.2076234 7.3629032-1.5991267 13.0339355-4.1752208 17.008129-2.5753831 3.9749032-4.6935682 4.8463871-6.3517111 2.6137419-1.6581428-2.2312258-1.4725616-7.2905161.5560325-15.1863871 2.0271721-7.8930322 4.4489708-12.3710967 7.2611299-13.4313548 2.0136623-1.3668387 2.9166818 1.6315484 2.7097695 8.995871m45.2590519-16.2750323c2.9600552 6.749742.4884838 13.0665807-7.4175584 18.9526452 0-8.0321291 2.4715714-14.3518065 7.4175584-18.9526452m118.4448703 33.0113549c-3.641231.5294193-5.284442-2.6506452-4.931055-9.5409033 0 0 .230376-15.3460645 1.777597-21.3804516.635669-2.4796129-1.141929-4.2090968-4.217883-4.9350968-.683309 1.98-1.097133 4.3645162-1.244318 7.1542581-2.546942-5.6625161-5.966328-5.5581935-10.25887.3143871-3.307043 4.5192258-6.73425 12.3916774-7.304504 22.7089677-3.25798 8.3230968-5.74235 9.8141291-6.178928 6.7724517-.568831-3.9827097 1.845857-19.9632258 1.845857-19.9632258 1.154016-7.6709033 1.198812-11.7153549.133675-12.1340646-1.808172-2.5931613-7.123188 1.4512904-15.945759 12.1340646 0 0 1.7456-9.3421936 1.907717-12.5101936.300059-5.7164516-3.918536-7.0038064-4.949542-3.8287097-.494172 1.5194194-.866046 12.1468387-1.063714 19.2542581-3.500445 12.1518064-7.118923 18.4487742-12.313773 17.4580645-2.213464-.4229677-2.497169-4.3410968-2.823536-8.052-.11661-3.4887742.708195-7.6893548 1.063714-13.0303871l1.678052-17.7014839c-2.044237-.1390967-3.361081.1121291-3.954087.7536775 0 0-3.26438 15.2665806-3.321974 28.4467096-.942838 3.3489678-2.024328 6.1876775-3.252293 8.4969678-1.508113 2.8479355-3.366058 1.7394193-4.388532-1.1369032-2.720435-7.6588388-.278727-32.2271613-.179182-32.7601291 3.971864.0241291 7.825695-.6294838 7.825695-.6294838 1.235786-1.5967742.655578-4.1367097.655578-4.1367097-2.037127.290258-7.418981.290258-7.418981.290258-.798496.0738065-1.328931-.7550967-1.328931-.7550967.327789-9.9276775-.204069-14.5682581.090302-13.9728387-.361208-.7323871-4.109095-1.6528388-4.581225 1.8898709l-.444399 5.4396774c-.266639 4.967742-.386094 7.3983871-2.309454 7.1322581-1.924783-.2647097-4.392799-.3349677-7.283884-.9410323 0 0-1.165392 3.4249033 2.345007 4.0032904 1.322532.2171613 3.809747 1.0645161 5.558192 1.1432903l-.041952 9.2045161c-.209756 5.2984516-.208334 10.1150323-.001422 14.4646452-3.729399 11.684129-7.438178 13.879871-7.718328 9.8453548-.278016-4.0146451 1.698672-18.3678709 1.698672-18.3678709 1.155439-7.6709033 1.199523-11.7153549.132965-12.1340646-1.80675-2.5931613-7.121767 1.4512904-15.944338 12.1340646 0 0 1.74489-9.3421936 1.90914-12.5101936.299347-5.7164516-3.919247-7.0038064-4.950965-3.8287097-.512659 1.5776129-.8937757 12.9672258-1.0850452 20.0469678-2.8071818 8.0477419-3.1548799 10.4003226-9.8066493 15.4965161-3.2245617 2.4703871-4.9744286.5287097-5.3299481-8.8702581 8.1719708-8.4792258 12.0585097-14.4703225 11.6581948-17.9718709-.3988928-3.4987097-.9243506-5.9329033-1.5756623-7.299742-.9769676-2.0914193-2.4530844-3.4873548-4.1752208-2.8443871-5.1244578 1.9132904-8.8858539 8.3969033-11.0147046 19.1612904l-.5418116 7.2571612c-2.7680747 8.6928388-5.0384221 13.3383871-6.8096202 13.9139355-2.0577467.6678065-3.7080682-2.0069677-4.9516753-8.032129l.0888799-3.7655484c.8880876-3.5434193 2.6272889-7.3430322 5.2183149-11.4009677 2.5903149-4.0600645 4.9602078-9.0796129 7.1068344-15.0643226 2.1466266-5.981871 2.9828085-10.6948387 2.5092565-14.1410323-.4735519-3.4440645-2.2731915-5.2792903-5.3967857-5.502129-3.1235942-.222129-5.6477825 1.6876129-7.482974 5.7739355-1.7136039 3.8145161-2.3656266 5.6483226-3.375302 9.5806451-1.3090227 5.0969033-2.4587727 10.5032259-2.9316136 16.3594839-.346276 3.3922581-.4970162 6.7426452-.4792403 10.0554194-1.4114123 7.2245161-3.4115649 11.3825161-6.0061461 12.4555484-3.6419415.5294193-5.0896169-2.6407097-4.9296331-9.5409033.0504838-2.1638064-.0447954-8.6601935-.0447954-8.6601935l.3555194-6.067742c.2659286-2.6470967.7544124-4.866258 1.4661624-6.6525161.2659285-2.5640645-1.1412176-4.2090968-4.2207273-4.9350968-.6811753 1.98-1.095 4.3645162-1.2421851 7.1542581-2.5476526-5.6625161-5.9670389-5.5581935-10.2602922.3143871-4.2939643 5.8697419-9.8905519 17.360129-5.9961915 32.6118065.2573961 1.0091612 1.9098506 3.5987742 1.9098506 3.5987742 4.5591818 4.6029677 9.0749903.2647096 13.5460033-13.0112259.8887987 5.4389678 2.8007824 10.2030323 6.662435 10.9623871 3.3959221.6649678 6.4768539-3.2517419 9.1396948-8.7858064.4835065 6.6262581 1.4995812 11.0255484 3.5630163 12.3824516 2.5512078 1.6798065 5.093172 1.1851613 6.9297857.2107742 2.4488182-.7841936 4.562737-4.1927742 6.3438896-10.2065806 2.0477922 7.6077419 6.7050974 8.8787741 12.1765422 4.2658709 5.8262533-4.9145161 6.9824026-7.7411613 7.6202045-10.9027742-.3164123 5.057871-.5688311 9.8872258-.7473019 14.4568387.7096169 1.2000646 1.8643443 1.1170323 3.4620483-.2498064.858935-16.5127742 5.108815-26.5972903 12.748929-30.25-1.54011 15.424129-1.208055 24.1112903-.799919 26.5894839.514081 3.1190322 2.221997 4.470258 3.81899 4.2474193 4.490922-.6323226 6.636838-6.7029032 8.111533-12.7976129.05475.5762581.1095 1.1532258.173493 1.7103226 1.360929 6.0237419 3.225984 9.3485806 5.596588 9.9766451 2.36776.6294839 4.559893-.138387 6.573555-2.3007741 1.021763-1.097871 1.894208-2.2745162 2.618757-3.5256775.156428.9793549.345565 1.9182581.579496 2.794.593007 2.2326452 2.603825 4.1147097 5.729552 4.1430968 0 0 6.838062 1.0503226 10.021384-7.6375484 0 0 1.394347-3.1076774 2.413266-6.1564516-.287971 4.6945161-.518348 9.1881936-.68402 13.4569032.708195 1.2000646 1.863633 1.1170323 3.462049-.2498064.858224-16.5127742 5.107393-26.5972903 12.746795-30.25-1.54011 15.424129-1.208055 24.1112903-.798496 26.5894839.514081 3.1190322 2.220574 4.470258 3.819701 4.2474193 3.128571-.4414193 5.115925-3.5263871 6.533737-7.414.206201 1.3363226.482795 2.7052903.840448 4.1061936.256685 1.0091612 1.288403 2.8195483 1.90914 3.5987742 4.09274 5.132387 9.074279.2647096 13.547425-13.0112259.885955 5.4389678 2.797938 10.2030323 6.661724 10.9623871 3.45636.6763226 6.588487-3.3887096 9.282614-9.0796129 2.427487-4.2389032 2.411844-8.1875483-.046218-11.8409677-1.420656 8.8979355-3.582925 13.9472903-6.483964 15.1466452zm-181.0397631-49.7207097c-.9705682-3.5959355-.9791007-7.277742-.0248864-11.0461291.9542143-3.76767737 1.6908506-4.76903221 2.2099091-3.0061935.5190584 1.7706452-.2090455 6.4516774-2.1850227 14.0523226m15.9649577 8.1279355c1.5991267-.7118065.4500877-6.1330323.4500877-6.1330323s-10.4928019 4.9358065-12.9494415 2.4022581c1.4078571-6.7412258 2.4210876-11.1305807 2.756698-13.9231613.3341883-2.7890323-.8909318-5.32045163-1.5763734-7.29122583-.6861526-1.96935483-2.5945811-1.61593548-5.7238636 1.06451613-3.1321266 2.6797419-3.6085227 9.8070323-1.4313214 21.3804516-5.3235487 29.3934194-12.3791883 51.3373549-15.091802 48.1672258-2.71190258-3.168-5.30292856-15.6072258-3.32055193-45.2887742l2.46019483-29.14077416c-1.9759773-4.41348388-3.96688639-4.95000001-5.97557146-1.60954839l-1.25498376 12.01625805c-.8376039 7.6638065-1.77475325 17.3147097-2.81287013 28.9505807 0 0-.3540974 9.0498064-.25028572 12.0616774.64206819 18.7837419 4.26907793 29.0527742 7.78303247 31.0554838 3.5146656 2.002 5.2424903 1.4420646 6.7790455.8289033 2.5597402-1.0198065 6.059474-8.1662581 10.2446493-26.5866452l6.423526-26.1587097s4.4816786 2.2134839 13.4898311-1.7954838"/><path d="m204.202924 18.3881677s-3.735088-3.4029032-5.034156 8.2649033c0 0 8.767821-5.671742 5.034156-8.2649033m-5.034156 8.2649033c4.220727 5.8356774 6.821708 2.7556774 6.821708 2.7556774.809873-3.7272258-6.821708-2.7556774-6.821708-2.7556774m-4.222861-7.4544516s-2.273191 1.9445161 4.222861 7.4544516c0 0-.812007-9.3996775-4.222861-7.4544516m-12.015847 11.8310322c-5.846873-4.2133548-2.598136-8.7524516-2.598136-8.7524516 3.735798 5.9981935 12.666448 7.1315484 12.666448 7.1315484-3.735088 5.1870322-10.068312 1.6209032-10.068312 1.6209032m-12.584679-14.0430968c-.628558 0-.949948-.4236774-.949948-.9488387 0-.5237419.426624-.9467096.949948-.9467096.52688 0 .949949.4229677.949949.9467096 0 .5251613-.319968.9488387-.949949.9488387m10.79926 1.2390968s-1.78613-5.6717419-8.44501-5.0245161c0 0-6.171107.4868387-6.494629 6.3218064 0 0 1.624724-1.7827096 2.111074.1625162 0 0-1.13624 8.4274193 2.111075 12.9658064 0 0 3.737221 5.9669678 11.385867 6.668129-1.124153 1.4647742-3.231672 2.9487097-3.231672 2.9487097l-4.746896.941742 3.540974.1483225-2.62089 1.7174194 3.590036-1.3973548-.645624 1.542129 1.817416-1.8146452 2.733234-.2732258-1.84799-.5563871c1.461185-1.0595484 2.499301-2.2170322 3.212474-3.194258 1.298357-.0248387 2.693415-.1994194 4.188019-.5727097 0 0 10.06689-3.4036129 11.366669-12.1560645 0 0-11.041013 4.5383871-18.024127-8.4274194"/></g></svg>